Coordinates
version=1
nRows=47
nColumns=15
inDegrees=yes

Units are S.I. units (second, meters, Newtons, ...)
Angles are in degrees.

endheader
time	sacrum_pitch	sacrum_roll	sacrum_yaw	sacrum_x	sacrum_y	sacrum_z	sacroiliac_flx	hip_flx	hip_add	hip_int	knee_flx	ankle_flx	ankle_add	ankle_int
0.00500000	30.00000000	0.00000000	0.00000000	0.08700000	0.06300000	0.00000000	0.00000000	1.28426757	0.00000000	0.00000000	-86.55209845	-17.70114702	0.00000000	0.00000000
0.01000000	30.00000000	0.00000000	0.00000000	0.08696504	0.06299445	0.00000000	0.00000000	1.12875161	0.00000000	0.00000000	-86.67429401	-17.39376362	0.00000000	0.00000000
0.01500000	30.00000000	0.00000000	0.00000000	0.08690906	0.06297960	0.00000000	0.00000000	1.00512227	0.00000000	0.00000000	-87.02954080	-16.53998102	0.00000000	0.00000000
0.02000000	30.00000000	0.00000000	0.00000000	0.08679893	0.06294691	0.00000000	0.00000000	0.85107198	0.00000000	0.00000000	-87.24053525	-16.05978278	0.00000000	0.00000000
0.02500000	30.00000000	0.00000000	0.00000000	0.08669257	0.06289429	0.00000000	0.00000000	0.97781607	0.00000000	0.00000000	-87.69380912	-15.32430309	0.00000000	0.00000000
0.03000000	30.00000000	0.00000000	0.00000000	0.08654775	0.06290134	0.00000000	0.00000000	0.93799589	0.00000000	0.00000000	-88.06473275	-14.84000300	0.00000000	0.00000000
0.03500000	30.00000000	0.00000000	0.00000000	0.08637133	0.06289750	0.00000000	0.00000000	0.96290583	0.00000000	0.00000000	-88.39925422	-14.42126151	0.00000000	0.00000000
0.04000000	30.00000000	0.00000000	0.00000000	0.08618997	0.06282357	0.00000000	0.00000000	1.06491983	0.00000000	0.00000000	-88.36649334	-14.51205619	0.00000000	0.00000000
0.04500000	30.00000000	0.00000000	0.00000000	0.08599963	0.06281924	0.00000000	0.00000000	1.19147515	0.00000000	0.00000000	-88.69790551	-14.46403474	0.00000000	0.00000000
0.05000000	30.00000000	0.00000000	0.00000000	0.08584151	0.06274210	0.00000000	0.00000000	1.51502631	0.00000000	0.00000000	-89.08334274	-14.38058169	0.00000000	0.00000000
0.05500000	30.00000000	0.00000000	0.00000000	0.08566250	0.06273466	0.00000000	0.00000000	1.58884654	0.00000000	0.00000000	-89.14809182	-14.35455236	0.00000000	0.00000000
0.06000000	30.00000000	0.00000000	0.00000000	0.08550086	0.06270532	0.00000000	0.00000000	1.65124228	0.00000000	0.00000000	-89.28195025	-14.02351155	0.00000000	0.00000000
0.06500000	30.00000000	0.00000000	0.00000000	0.08535899	0.06261416	0.00000000	0.00000000	1.82552199	0.00000000	0.00000000	-89.39150925	-13.87271076	0.00000000	0.00000000
0.07000000	30.00000000	0.00000000	0.00000000	0.08521690	0.06256166	0.00000000	0.00000000	2.07760768	0.00000000	0.00000000	-89.52471659	-13.84405409	0.00000000	0.00000000
0.07500000	30.00000000	0.00000000	0.00000000	0.08499872	0.06257124	0.00000000	0.00000000	2.06654300	0.00000000	0.00000000	-89.62952180	-13.96635040	0.00000000	0.00000000
0.08000000	30.00000000	0.00000000	0.00000000	0.08484415	0.06248645	0.00000000	0.00000000	2.43923612	0.00000000	0.00000000	-89.86782640	-13.79032112	0.00000000	0.00000000
0.08500000	30.00000000	0.00000000	0.00000000	0.08465608	0.06246246	0.00000000	0.00000000	2.54059051	0.00000000	0.00000000	-90.04368008	-13.75693358	0.00000000	0.00000000
0.09000000	30.00000000	0.00000000	0.00000000	0.08443819	0.06247414	0.00000000	0.00000000	2.49573645	0.00000000	0.00000000	-90.16915989	-13.60228462	0.00000000	0.00000000
0.09500000	30.00000000	0.00000000	0.00000000	0.08429437	0.06244527	0.00000000	0.00000000	2.68022212	0.00000000	0.00000000	-90.33631781	-13.46613587	0.00000000	0.00000000
0.10000000	30.00000000	0.00000000	0.00000000	0.08407176	0.06247519	0.00000000	0.00000000	2.59470999	0.00000000	0.00000000	-90.40710441	-13.33441923	0.00000000	0.00000000
0.10500000	30.00000000	0.00000000	0.00000000	0.08390436	0.06246295	0.00000000	0.00000000	2.63739986	0.00000000	0.00000000	-90.45512005	-13.72958413	0.00000000	0.00000000
0.11000000	30.00000000	0.00000000	0.00000000	0.08370609	0.06247963	0.00000000	0.00000000	2.66130615	0.00000000	0.00000000	-90.61791280	-13.43822175	0.00000000	0.00000000
0.11500000	30.00000000	0.00000000	0.00000000	0.08352252	0.06239957	0.00000000	0.00000000	2.81559424	0.00000000	0.00000000	-90.81499101	-13.54084577	0.00000000	0.00000000
0.12000000	30.00000000	0.00000000	0.00000000	0.08335213	0.06240001	0.00000000	0.00000000	3.05665304	0.00000000	0.00000000	-91.05991245	-13.62523730	0.00000000	0.00000000
0.12500000	30.00000000	0.00000000	0.00000000	0.08316885	0.06242457	0.00000000	0.00000000	2.99874116	0.00000000	0.00000000	-91.18315128	-13.63207026	0.00000000	0.00000000
0.13000000	30.00000000	0.00000000	0.00000000	0.08298169	0.06241225	0.00000000	0.00000000	3.06704337	0.00000000	0.00000000	-91.32527042	-13.48568542	0.00000000	0.00000000
0.13500000	30.00000000	0.00000000	0.00000000	0.08279940	0.06241951	0.00000000	0.00000000	3.03193151	0.00000000	0.00000000	-91.37557722	-13.56678149	0.00000000	0.00000000
0.14000000	30.00000000	0.00000000	0.00000000	0.08260950	0.06243427	0.00000000	0.00000000	2.94166768	0.00000000	0.00000000	-91.52060068	-13.55893852	0.00000000	0.00000000
0.14500000	30.00000000	0.00000000	0.00000000	0.08244591	0.06240987	0.00000000	0.00000000	3.02066266	0.00000000	0.00000000	-91.67144092	-13.57097005	0.00000000	0.00000000
0.15000000	30.00000000	0.00000000	0.00000000	0.08228113	0.06243942	0.00000000	0.00000000	2.95536198	0.00000000	0.00000000	-91.80096671	-13.59550741	0.00000000	0.00000000
0.15500000	30.00000000	0.00000000	0.00000000	0.08210603	0.06247037	0.00000000	0.00000000	3.10386572	0.00000000	0.00000000	-92.00844231	-13.54779242	0.00000000	0.00000000
0.16000000	30.00000000	0.00000000	0.00000000	0.08198102	0.06249582	0.00000000	0.00000000	3.08040070	0.00000000	0.00000000	-92.17420437	-13.59615560	0.00000000	0.00000000
0.16500000	30.00000000	0.00000000	0.00000000	0.08183603	0.06255179	0.00000000	0.00000000	2.99658290	0.00000000	0.00000000	-92.31645072	-13.63495400	0.00000000	0.00000000
0.17000000	30.00000000	0.00000000	0.00000000	0.08170200	0.06259167	0.00000000	0.00000000	2.99008492	0.00000000	0.00000000	-92.50438942	-13.47672956	0.00000000	0.00000000
0.17500000	30.00000000	0.00000000	0.00000000	0.08160832	0.06262521	0.00000000	0.00000000	3.01588076	0.00000000	0.00000000	-92.59718380	-13.85070046	0.00000000	0.00000000
0.18000000	30.00000000	0.00000000	0.00000000	0.08151971	0.06269418	0.00000000	0.00000000	2.95430410	0.00000000	0.00000000	-92.67140634	-13.41156565	0.00000000	0.00000000
0.18500000	30.00000000	0.00000000	0.00000000	0.08143508	0.06277407	0.00000000	0.00000000	2.85771896	0.00000000	0.00000000	-92.53829784	-14.05814170	0.00000000	0.00000000
0.19000000	30.00000000	0.00000000	0.00000000	0.08135322	0.06284708	0.00000000	0.00000000	2.79084230	0.00000000	0.00000000	-92.66767197	-13.86297037	0.00000000	0.00000000
0.19500000	30.00000000	0.00000000	0.00000000	0.08126980	0.06292103	0.00000000	0.00000000	2.71250665	0.00000000	0.00000000	-92.79293316	-13.83155710	0.00000000	0.00000000
0.20000000	30.00000000	0.00000000	0.00000000	0.08119772	0.06299569	0.00000000	0.00000000	2.65247493	0.00000000	0.00000000	-92.96234762	-13.87449553	0.00000000	0.00000000
0.20500000	30.00000000	0.00000000	0.00000000	0.08114185	0.06308082	0.00000000	0.00000000	2.74266977	0.00000000	0.00000000	-93.19152437	-14.04557089	0.00000000	0.00000000
0.21000000	30.00000000	0.00000000	0.00000000	0.08110151	0.06314494	0.00000000	0.00000000	2.73347542	0.00000000	0.00000000	-93.41043735	-13.67271976	0.00000000	0.00000000
0.21500000	30.00000000	0.00000000	0.00000000	0.08105423	0.06324220	0.00000000	0.00000000	2.71906040	0.00000000	0.00000000	-93.56609183	-14.02085371	0.00000000	0.00000000
0.22000000	30.00000000	0.00000000	0.00000000	0.08099209	0.06332925	0.00000000	0.00000000	2.49534872	0.00000000	0.00000000	-93.42555114	-14.05768599	0.00000000	0.00000000
0.22500000	30.00000000	0.00000000	0.00000000	0.08093407	0.06340893	0.00000000	0.00000000	2.42413785	0.00000000	0.00000000	-93.53036249	-13.93818662	0.00000000	0.00000000
0.23000000	30.00000000	0.00000000	0.00000000	0.08085261	0.06349038	0.00000000	0.00000000	2.31232732	0.00000000	0.00000000	-93.73058679	-14.12329097	0.00000000	0.00000000
0.23500000	30.00000000	0.00000000	0.00000000	0.08076632	0.06356978	0.00000000	0.00000000	2.18435298	0.00000000	0.00000000	-93.89646445	-14.23212106	0.00000000	0.00000000
